# xmcd
#
# Track frame offsets: 
#        150
#        17420
#        36102
#        58667
#        77545
#        93645
#        123110
#        141781
#        165328
#        180204
#        198667
#        220316
#
# Disc length: 3149 seconds
#
# Revision: 1
# Processed by: cddbd v1.5.2PL0 Copyright (c) Steve Scherf et al.
# Submitted via: ExactAudioCopy v1.3
#
DISCID=940c4b0c
DTITLE=Izo FitzRoy - Skyline
DYEAR=2016
DGENRE=Jazz
TTITLE0=Day By Day
TTITLE1=Heads Held High 
TTITLE2=Say Something
TTITLE3=Phoenix
TTITLE4=I Keep You Guessing
TTITLE5=Skyline
TTITLE6=Reckoning
TTITLE7=Here I Come
TTITLE8=Hope You Can Wait
TTITLE9=Break The Levee
TTITLE10=Shadowlands
TTITLE11=Whispers In A Hurricane
EXTD=YEAR: 2016
EXTT0=
EXTT1=
EXTT2=
EXTT3=
EXTT4=
EXTT5=
EXTT6=
EXTT7=
EXTT8=
EXTT9=
EXTT10=
EXTT11=
PLAYORDER=
